<svg xmlns="http://www.w3.org/2000/svg" id="Layer_3" height="512" viewBox="0 0 64 64" width="512"><path d="m36 6v2h-8v2h-26v-4c0-2.21 1.79-4 4-4h26c2.21 0 4 1.79 4 4z" fill="#969faa"></path><path d="m36 54v4c0 2.21-1.79 4-4 4h-26c-2.21 0-4-1.79-4-4v-4z" fill="#969faa"></path><path d="m2 10h34v44h-34z" fill="#69d6f4"></path><path d="m6 14h26v36h-26z" fill="#fcd770"></path><path d="m62 40v3c0 1.66-1.34 3-3 3h-23-4-1c.83 0 1.58-.34 2.12-.88s.88-1.29.88-2.12v-3h22z" fill="#b4dd7f"></path><path d="m48 8h-12-8v2 4 29c0 1.66 1.34 3 3 3 .83 0 1.58-.34 2.12-.88s.88-1.29.88-2.12v-3h22v-24z" fill="#e6e9ed"></path><path d="m56 16h-4-4v-4-4z" fill="#b4dd7f"></path><path d="m52 16v4h-20v-8h16v4z" fill="#ffeaa7"></path><path d="m23 5h2v2h-2z"></path><path d="m13 5h8v2h-8z"></path><path d="m15 57h8v2h-8z"></path><path d="m29 57h2v2h-2z"></path><path d="m7 57h2v2h-2z"></path><path d="m57 39v-23.414l-8.586-8.586h-11.414v-1c0-2.757-2.243-5-5-5h-26c-2.757 0-5 2.243-5 5v52c0 2.757 2.243 5 5 5h26c2.757 0 5-2.243 5-5v-11h22c2.206 0 4-1.794 4-4v-4zm-26 8v2h-24v-34h20v28c0 2.206 1.794 4 4 4zm0-2c-1.103 0-2-.897-2-2v-34h18v2h-16v10h22v-4h2v22h-22v4c0 1.103-.897 2-2 2zm20-28v2h-18v-6h14v4zm-2-2v-4.586l4.586 4.586zm-43-12h26c1.654 0 3 1.346 3 3v1h-8v2h-24v-3c0-1.654 1.346-3 3-3zm26 58h-26c-1.654 0-3-1.346-3-3v-3h32v3c0 1.654-1.346 3-3 3zm3-8h-32v-42h24v2h-22v38h28v-4h2zm26-10c0 1.103-.897 2-2 2h-24.537c.342-.589.537-1.272.537-2v-2h26z"></path><path d="m19 27c1.103 0 2 .897 2 2h2c0-1.858-1.28-3.411-3-3.858v-2.142h-2v2h-3v4c0 2.206 1.794 4 4 4 1.103 0 2 .897 2 2v2h-2c-1.103 0-2-.897-2-2h-2c0 1.858 1.28 3.411 3 3.858v2.142h2v-2h3v-4c0-2.206-1.794-4-4-4-1.103 0-2-.897-2-2v-2z"></path><path d="m31 23h2v2h-2z"></path><path d="m35 23h18v2h-18z"></path><path d="m31 27h2v2h-2z"></path><path d="m35 27h18v2h-18z"></path><path d="m31 31h2v2h-2z"></path><path d="m35 31h18v2h-18z"></path><path d="m31 35h2v2h-2z"></path><path d="m35 35h18v2h-18z"></path><path d="m11 38h-2v9h6v-2h-4z"></path><path d="m9 34h2v2h-2z"></path><path d="m9 17h2v2h-2z"></path><path d="m13 17h2v2h-2z"></path><path d="m17 17h2v2h-2z"></path></svg>