<svg xmlns="http://www.w3.org/2000/svg" id="Capa_1" height="512" viewBox="0 0 512 512" width="512"><g><path d="m7.5 37.5h242v437h-242z" fill="#404242"></path><path d="m444.5 504.5v-330l60 60v240c0 16.569-13.431 30-30 30z" fill="#6f706f"></path><path d="m219.5 234.5v240c0 16.569 13.431 30 30 30h195c16.569 0 30-13.431 30-30v-360z" fill="#8f8f8b"></path><path d="m444.5 7.5 30 227h30v-197c0-16.569-13.431-30-30-30z" fill="#404242"></path><path d="m219.5 234.5v-197c0-16.569 13.431-30 30-30h195c16.569 0 30 13.431 30 30l-45 83.5 45 83.5v30z" fill="#565959"></path><path d="m159.5 7.5h-30v497h30c16.5 0 30-13.5 30-30v-437c0-16.5-13.5-30-30-30z" fill="#565959"></path><path d="m129.5 7.5h-62c-16.5 0-30 13.5-30 30v437c0 16.5 13.5 30 30 30h62c16.5 0 30-13.5 30-30v-437c0-16.5-13.5-30-30-30z" fill="#6f706f"></path><path d="m474.5 204.5v-45l-90-75 60 120z" fill="#2d6aab"></path><path d="m249.5 204.5v-45l195-75v120z" fill="#4b88d5"></path><path d="m444.5 37.5-75 61 75 61h30v-122z" fill="#a4d43b"></path><path d="m249.5 37.5h195v122h-195z" fill="#cce332"></path><g fill="#adaca7"><circle cx="362" cy="369.5" r="15"></circle><circle cx="302" cy="369.5" r="15"></circle><circle cx="362" cy="429.5" r="15"></circle><circle cx="302" cy="429.5" r="15"></circle><circle cx="422" cy="369.5" r="15"></circle><circle cx="362" cy="309.5" r="15"></circle><circle cx="302" cy="309.5" r="15"></circle><circle cx="422" cy="309.5" r="15"></circle><circle cx="422" cy="429.5" r="15"></circle></g><path d="m362 287c-12.407 0-22.5 10.093-22.5 22.5s10.093 22.5 22.5 22.5 22.5-10.093 22.5-22.5-10.093-22.5-22.5-22.5zm0 30c-4.136 0-7.5-3.364-7.5-7.5s3.364-7.5 7.5-7.5 7.5 3.364 7.5 7.5-3.364 7.5-7.5 7.5z"></path><path d="m302 287c-12.407 0-22.5 10.093-22.5 22.5s10.093 22.5 22.5 22.5 22.5-10.093 22.5-22.5-10.093-22.5-22.5-22.5zm0 30c-4.136 0-7.5-3.364-7.5-7.5s3.364-7.5 7.5-7.5 7.5 3.364 7.5 7.5-3.364 7.5-7.5 7.5z"></path><path d="m362 347c-12.407 0-22.5 10.093-22.5 22.5s10.093 22.5 22.5 22.5 22.5-10.093 22.5-22.5-10.093-22.5-22.5-22.5zm0 30c-4.136 0-7.5-3.364-7.5-7.5s3.364-7.5 7.5-7.5 7.5 3.364 7.5 7.5-3.364 7.5-7.5 7.5z"></path><path d="m302 347c-12.407 0-22.5 10.093-22.5 22.5s10.093 22.5 22.5 22.5 22.5-10.093 22.5-22.5-10.093-22.5-22.5-22.5zm0 30c-4.136 0-7.5-3.364-7.5-7.5s3.364-7.5 7.5-7.5 7.5 3.364 7.5 7.5-3.364 7.5-7.5 7.5z"></path><path d="m422 347c-12.407 0-22.5 10.093-22.5 22.5s10.093 22.5 22.5 22.5 22.5-10.093 22.5-22.5-10.093-22.5-22.5-22.5zm0 30c-4.136 0-7.5-3.364-7.5-7.5s3.364-7.5 7.5-7.5 7.5 3.364 7.5 7.5-3.364 7.5-7.5 7.5z"></path><path d="m362 407c-12.407 0-22.5 10.093-22.5 22.5s10.093 22.5 22.5 22.5 22.5-10.093 22.5-22.5-10.093-22.5-22.5-22.5zm0 30c-4.136 0-7.5-3.364-7.5-7.5s3.364-7.5 7.5-7.5 7.5 3.364 7.5 7.5-3.364 7.5-7.5 7.5z"></path><path d="m302 407c-12.407 0-22.5 10.093-22.5 22.5s10.093 22.5 22.5 22.5 22.5-10.093 22.5-22.5-10.093-22.5-22.5-22.5zm0 30c-4.136 0-7.5-3.364-7.5-7.5s3.364-7.5 7.5-7.5 7.5 3.364 7.5 7.5-3.364 7.5-7.5 7.5z"></path><path d="m422 407c-12.407 0-22.5 10.093-22.5 22.5s10.093 22.5 22.5 22.5 22.5-10.093 22.5-22.5-10.093-22.5-22.5-22.5zm0 30c-4.136 0-7.5-3.364-7.5-7.5s3.364-7.5 7.5-7.5 7.5 3.364 7.5 7.5-3.364 7.5-7.5 7.5z"></path><path d="m422 287c-12.407 0-22.5 10.093-22.5 22.5s10.093 22.5 22.5 22.5 22.5-10.093 22.5-22.5-10.093-22.5-22.5-22.5zm0 30c-4.136 0-7.5-3.364-7.5-7.5s3.364-7.5 7.5-7.5 7.5 3.364 7.5 7.5-3.364 7.5-7.5 7.5z"></path><path d="m482 204.5v-167c0-4.142-3.358-7.5-7.5-7.5h-225c-4.142 0-7.5 3.358-7.5 7.5v167c0 4.142 3.358 7.5 7.5 7.5h225c4.142 0 7.5-3.358 7.5-7.5zm-15-159.5v107h-210v-107zm-210 152v-30h210v30z"></path><path d="m474.5 0h-225c-18.11 0-33.261 12.904-36.745 30h-16.509c-3.485-17.096-18.636-30-36.746-30h-92c-18.11 0-33.261 12.904-36.745 30h-23.255c-4.142 0-7.5 3.358-7.5 7.5v437c0 4.142 3.358 7.5 7.5 7.5h23.255c3.484 17.096 18.635 30 36.745 30h92c18.11 0 33.261-12.904 36.745-30h16.509c3.484 17.096 18.635 30 36.745 30h225c20.678 0 37.5-16.822 37.5-37.5v-437c.001-20.678-16.821-37.5-37.499-37.5zm-459.5 45h15v422h-15zm167 429.5c0 12.407-10.093 22.5-22.5 22.5h-92c-12.407 0-22.5-10.093-22.5-22.5v-437c0-12.407 10.093-22.5 22.5-22.5h92c12.407 0 22.5 10.093 22.5 22.5zm30-7.5h-15v-422h15zm262.5 30h-225c-12.407 0-22.5-10.093-22.5-22.5v-232.5h22.5c4.142 0 7.5-3.358 7.5-7.5s-3.358-7.5-7.5-7.5h-22.5v-189.5c0-12.407 10.093-22.5 22.5-22.5h225c12.407 0 22.5 10.093 22.5 22.5v189.5h-217.5c-4.142 0-7.5 3.358-7.5 7.5s3.358 7.5 7.5 7.5h217.5v232.5c0 12.407-10.093 22.5-22.5 22.5z"></path></g></svg>